TITLE ""
FILE "DISC1Track14.mp3" MP3
  TRACK 01 AUDIO
    TITLE "DISC1Track14_01"
    INDEX 01 00:00:00
  TRACK 02 AUDIO
    TITLE "DISC1Track14_02"
    INDEX 01 00:04:08
  TRACK 03 AUDIO
    TITLE "DISC1Track14_03"
    INDEX 01 00:04:36
  TRACK 04 AUDIO
    TITLE "DISC1Track14_04"
    INDEX 01 00:07:28
  TRACK 05 AUDIO
    TITLE "DISC1Track14_05"
    INDEX 01 00:09:62
  TRACK 06 AUDIO
    TITLE "DISC1Track14_06"
    INDEX 01 00:12:10
  TRACK 07 AUDIO
    TITLE "DISC1Track14_07"
    INDEX 01 00:12:39
  TRACK 08 AUDIO
    TITLE "DISC1Track14_08"
    INDEX 01 00:14:55
  TRACK 09 AUDIO
    TITLE "DISC1Track14_09"
    INDEX 01 00:17:05
  TRACK 10 AUDIO
    TITLE "DISC1Track14_10"
    INDEX 01 00:19:08
  TRACK 11 AUDIO
    TITLE "DISC1Track14_11"
    INDEX 01 00:19:37
  TRACK 12 AUDIO
    TITLE "DISC1Track14_12"
    INDEX 01 00:23:19
  TRACK 13 AUDIO
    TITLE "DISC1Track14_13"
    INDEX 01 00:26:25
  TRACK 14 AUDIO
    TITLE "DISC1Track14_14"
    INDEX 01 00:29:18
  TRACK 15 AUDIO
    TITLE "DISC1Track14_15"
    INDEX 01 00:29:47
  TRACK 16 AUDIO
    TITLE "DISC1Track14_16"
    INDEX 01 00:32:55
  TRACK 17 AUDIO
    TITLE "DISC1Track14_17"
    INDEX 01 00:35:48
  TRACK 18 AUDIO
    TITLE "DISC1Track14_18"
    INDEX 01 00:38:32
  TRACK 19 AUDIO
    TITLE "DISC1Track14_19"
    INDEX 01 00:38:64
  TRACK 20 AUDIO
    TITLE "DISC1Track14_20"
    INDEX 01 00:41:62
  TRACK 21 AUDIO
    TITLE "DISC1Track14_21"
    INDEX 01 00:44:33
  TRACK 22 AUDIO
    TITLE "DISC1Track14_22"
    INDEX 01 00:46:69
  TRACK 23 AUDIO
    TITLE "DISC1Track14_23"
    INDEX 01 00:47:16
  TRACK 24 AUDIO
    TITLE "DISC1Track14_24"
    INDEX 01 00:50:28
  TRACK 25 AUDIO
    TITLE "DISC1Track14_25"
    INDEX 01 00:52:72
  TRACK 26 AUDIO
    TITLE "DISC1Track14_26"
    INDEX 01 00:55:25
  TRACK 27 AUDIO
    TITLE "DISC1Track14_27"
    INDEX 01 00:55:52
  TRACK 28 AUDIO
    TITLE "DISC1Track14_28"
    INDEX 01 00:59:54
  TRACK 29 AUDIO
    TITLE "DISC1Track14_29"
    INDEX 01 01:02:60
  TRACK 30 AUDIO
    TITLE "DISC1Track14_30"
    INDEX 01 01:05:55
  TRACK 31 AUDIO
    TITLE "DISC1Track14_31"
    INDEX 01 01:06:11
  TRACK 32 AUDIO
    TITLE "DISC1Track14_32"
    INDEX 01 01:09:11
  TRACK 33 AUDIO
    TITLE "DISC1Track14_33"
    INDEX 01 01:11:61
  TRACK 34 AUDIO
    TITLE "DISC1Track14_34"
    INDEX 01 01:14:30
  TRACK 35 AUDIO
    TITLE "DISC1Track14_35"
    INDEX 01 01:14:58
  TRACK 36 AUDIO
    TITLE "DISC1Track14_36"
    INDEX 01 01:18:06
  TRACK 37 AUDIO
    TITLE "DISC1Track14_37"
    INDEX 01 01:21:50
  TRACK 38 AUDIO
    TITLE "DISC1Track14_38"
    INDEX 01 01:24:72
  TRACK 39 AUDIO
    TITLE "DISC1Track14_39"
    INDEX 01 01:25:32
  TRACK 40 AUDIO
    TITLE "DISC1Track14_40"
    INDEX 01 01:28:05
  TRACK 41 AUDIO
    TITLE "DISC1Track14_41"
    INDEX 01 01:30:49
  TRACK 42 AUDIO
    TITLE "DISC1Track14_42"
    INDEX 01 01:33:10
